<svg width="13" height="15" viewBox="0 0 13 15" fill="none" xmlns="http://www.w3.org/2000/svg">
<path d="M2.75 1.125C2.75 0.95924 2.81585 0.800269 2.93306 0.683058C3.05027 0.565848 3.20924 0.5 3.375 0.5H8.375C8.54076 0.5 8.69973 0.565848 8.81694 0.683058C8.93415 0.800269 9 0.95924 9 1.125C9 1.29076 8.93415 1.44973 8.81694 1.56694C8.69973 1.68415 8.54076 1.75 8.375 1.75H3.375C3.20924 1.75 3.05027 1.68415 2.93306 1.56694C2.81585 1.44973 2.75 1.29076 2.75 1.125V1.125ZM5.25 9.875C5.25 10.0408 5.31585 10.1997 5.43306 10.3169C5.55027 10.4342 5.70924 10.5 5.875 10.5C6.04076 10.5 6.19973 10.4342 6.31694 10.3169C6.43415 10.1997 6.5 10.0408 6.5 9.875V6.125C6.5 5.95924 6.43415 5.80027 6.31694 5.68306C6.19973 5.56585 6.04076 5.5 5.875 5.5C5.70924 5.5 5.55027 5.56585 5.43306 5.68306C5.31585 5.80027 5.25 5.95924 5.25 6.125V9.875ZM5.875 3C5.13631 3 4.40486 3.1455 3.72241 3.42818C3.03995 3.71086 2.41985 4.12519 1.89752 4.64752C1.37519 5.16985 0.96086 5.78995 0.678178 6.47241C0.395495 7.15486 0.25 7.88631 0.25 8.625C0.25 9.36369 0.395495 10.0951 0.678178 10.7776C0.96086 11.4601 1.37519 12.0801 1.89752 12.6025C2.41985 13.1248 3.03995 13.5391 3.72241 13.8218C4.40486 14.1045 5.13631 14.25 5.875 14.25C7.36684 14.25 8.79758 13.6574 9.85248 12.6025C10.9074 11.5476 11.5 10.1168 11.5 8.625C11.5 7.13316 10.9074 5.70242 9.85248 4.64752C8.79758 3.59263 7.36684 3 5.875 3V3ZM1.5 8.625C1.5 8.05047 1.61316 7.48156 1.83303 6.95076C2.05289 6.41996 2.37515 5.93766 2.78141 5.53141C3.18766 5.12515 3.66996 4.80289 4.20076 4.58303C4.73156 4.36316 5.30047 4.25 5.875 4.25C6.44953 4.25 7.01844 4.36316 7.54924 4.58303C8.08004 4.80289 8.56234 5.12515 8.96859 5.53141C9.37485 5.93766 9.69711 6.41996 9.91697 6.95076C10.1368 7.48156 10.25 8.05047 10.25 8.625C10.25 9.78532 9.78906 10.8981 8.96859 11.7186C8.14812 12.5391 7.03532 13 5.875 13C4.71468 13 3.60188 12.5391 2.78141 11.7186C1.96094 10.8981 1.5 9.78532 1.5 8.625ZM11.685 5.31625C11.7427 5.37586 11.8118 5.42337 11.8881 5.45601C11.9644 5.48865 12.0464 5.50578 12.1294 5.50638C12.2124 5.50698 12.2946 5.49105 12.3714 5.45951C12.4482 5.42798 12.5179 5.38147 12.5765 5.32271C12.6351 5.26395 12.6814 5.1941 12.7127 5.11725C12.744 5.0404 12.7597 4.95808 12.7589 4.8751C12.758 4.79211 12.7407 4.71013 12.7078 4.63392C12.675 4.55772 12.6273 4.48882 12.5675 4.43125L11.315 3.18375C11.2573 3.12414 11.1882 3.07663 11.1119 3.04399C11.0356 3.01135 10.9536 2.99422 10.8706 2.99362C10.7876 2.99302 10.7054 3.00895 10.6286 3.04049C10.5518 3.07202 10.4821 3.11853 10.4235 3.17729C10.3649 3.23605 10.3186 3.3059 10.2873 3.38275C10.256 3.4596 10.2403 3.54192 10.2411 3.6249C10.242 3.70789 10.2593 3.78987 10.2922 3.86608C10.325 3.94228 10.3727 4.01118 10.4325 4.06875L11.685 5.31625V5.31625Z" fill="#A2A3AD"/>
</svg>
