<svg width="14" height="14" viewBox="0 0 14 14" fill="none" xmlns="http://www.w3.org/2000/svg">
<path fill-rule="evenodd" clip-rule="evenodd" d="M14 7C14 8.85652 13.2625 10.637 11.9497 11.9497C10.637 13.2625 8.85652 14 7 14C5.14348 14 3.36301 13.2625 2.05025 11.9497C0.737498 10.637 0 8.85652 0 7C0 5.14348 0.737498 3.36301 2.05025 2.05025C3.36301 0.737498 5.14348 0 7 0C8.85652 0 10.637 0.737498 11.9497 2.05025C13.2625 3.36301 14 5.14348 14 7V7ZM7.875 3.5C7.875 3.73206 7.78281 3.95462 7.61872 4.11872C7.45462 4.28281 7.23206 4.375 7 4.375C6.76794 4.375 6.54538 4.28281 6.38128 4.11872C6.21719 3.95462 6.125 3.73206 6.125 3.5C6.125 3.26794 6.21719 3.04538 6.38128 2.88128C6.54538 2.71719 6.76794 2.625 7 2.625C7.23206 2.625 7.45462 2.71719 7.61872 2.88128C7.78281 3.04538 7.875 3.26794 7.875 3.5ZM6.125 6.125C5.89294 6.125 5.67038 6.21719 5.50628 6.38128C5.34219 6.54538 5.25 6.76794 5.25 7C5.25 7.23206 5.34219 7.45462 5.50628 7.61872C5.67038 7.78281 5.89294 7.875 6.125 7.875V10.5C6.125 10.7321 6.21719 10.9546 6.38128 11.1187C6.54538 11.2828 6.76794 11.375 7 11.375H7.875C8.10706 11.375 8.32962 11.2828 8.49372 11.1187C8.65781 10.9546 8.75 10.7321 8.75 10.5C8.75 10.2679 8.65781 10.0454 8.49372 9.88128C8.32962 9.71719 8.10706 9.625 7.875 9.625V7C7.875 6.76794 7.78281 6.54538 7.61872 6.38128C7.45462 6.21719 7.23206 6.125 7 6.125H6.125Z" fill="#303244"/>
</svg>
