<svg width="17" height="12" viewBox="0 0 17 12" fill="none" xmlns="http://www.w3.org/2000/svg">
<path d="M17 3.456V9.5625C17 10.1851 16.7301 10.7841 16.2455 11.2367C15.7609 11.6892 15.0984 11.961 14.3939 11.9963L14.2375 12H2.7625C2.05688 12 1.378 11.7618 0.865104 11.3342C0.352212 10.9067 0.0441989 10.3221 0.0042501 9.7005L0 9.5625V3.456L8.2042 7.248C8.29547 7.29018 8.39697 7.31222 8.5 7.31222C8.60303 7.31222 8.70453 7.29018 8.7958 7.248L17 3.456ZM2.7625 1.77038e-08H14.2375C14.9222 -7.2761e-05 15.5826 0.224247 16.0905 0.62945C16.5985 1.03465 16.9177 1.59186 16.9864 2.193L8.5 6.1155L0.0136 2.193C0.0794949 1.61573 0.376592 1.07814 0.851488 0.676847C1.32638 0.275557 1.94793 0.0368902 2.6044 0.0037501L2.7625 1.77038e-08H14.2375H2.7625Z" fill="white"/>
</svg>
