<svg width="19" height="20" viewBox="0 0 19 20" fill="none" xmlns="http://www.w3.org/2000/svg">
<path d="M16.0842 4.99523C14.873 4.53526 13.5747 4.19529 12.217 4.00197C12.2049 4.00001 12.1924 4.00127 12.1812 4.00557C12.17 4.00987 12.1607 4.017 12.1545 4.02597C11.9882 4.27195 11.803 4.59259 11.6732 4.84591C10.2332 4.66475 8.76934 4.66475 7.32942 4.84591C7.18481 4.56517 7.02174 4.29143 6.84097 4.02597C6.83485 4.01689 6.82558 4.0096 6.8144 4.00507C6.80323 4.00055 6.79068 3.999 6.77843 4.00063C5.42156 4.19395 4.12326 4.53393 2.91125 4.99457C2.90083 4.99825 2.89199 5.00453 2.88592 5.01257C0.422327 8.06237 -0.252946 11.0368 0.0787532 13.974C0.0796762 13.9812 0.0823279 13.9881 0.0865469 13.9944C0.0907659 14.0007 0.0964639 14.0063 0.103294 14.0106C1.54123 14.8922 3.14506 15.5638 4.84762 15.9972C4.85948 16.0003 4.87218 16.0002 4.88404 15.9972C4.8959 15.9941 4.90638 15.988 4.91411 15.9798C5.27985 15.5665 5.60601 15.1299 5.88467 14.6713C5.90129 14.6446 5.88546 14.6126 5.85221 14.6019C5.34081 14.4398 4.84531 14.2441 4.37025 14.0166C4.36172 14.0125 4.35452 14.0067 4.34932 13.9997C4.34412 13.9927 4.34106 13.9847 4.34044 13.9764C4.33981 13.9682 4.34162 13.9599 4.34572 13.9524C4.34982 13.9448 4.35608 13.9383 4.36392 13.9333C4.46367 13.8713 4.56341 13.8067 4.65841 13.742C4.66696 13.7362 4.67726 13.7325 4.68817 13.7313C4.69907 13.7301 4.71014 13.7315 4.72016 13.7353C7.82895 14.9113 11.1958 14.9113 14.2682 13.7353C14.2782 13.7313 14.2894 13.7297 14.3005 13.7308C14.3115 13.7318 14.322 13.7355 14.3307 13.7413C14.4257 13.8067 14.5247 13.8713 14.6252 13.9333C14.6331 13.9382 14.6395 13.9447 14.6437 13.9521C14.6479 13.9596 14.6499 13.9678 14.6494 13.9761C14.649 13.9843 14.6461 13.9923 14.641 13.9994C14.636 14.0065 14.6289 14.0124 14.6205 14.0166C14.1471 14.246 13.6547 14.4399 13.1377 14.6013C13.1298 14.6037 13.1225 14.6075 13.1165 14.6125C13.1104 14.6175 13.1057 14.6235 13.1027 14.6301C13.0996 14.6367 13.0982 14.6438 13.0987 14.6509C13.0991 14.658 13.1014 14.665 13.1053 14.6713C13.3902 15.1292 13.7164 15.5652 14.075 15.9792C14.0825 15.9877 14.0929 15.994 14.1048 15.9974C14.1167 16.0007 14.1295 16.0009 14.1415 15.9978C15.847 15.5656 17.4534 14.8938 18.893 14.0106C18.9 14.0065 18.9059 14.0012 18.9102 13.9949C18.9146 13.9887 18.9174 13.9818 18.9183 13.9746C19.3141 10.5789 18.2549 7.62839 16.1087 5.0139C16.1035 5.0054 16.0948 4.99878 16.0842 4.99523ZM6.34936 12.1854C5.41364 12.1854 4.64179 11.4728 4.64179 10.5989C4.64179 9.72426 5.3986 9.0123 6.34936 9.0123C7.30725 9.0123 8.07198 9.73026 8.05694 10.5989C8.05694 11.4735 7.30013 12.1854 6.34936 12.1854V12.1854ZM12.6627 12.1854C11.7262 12.1854 10.9551 11.4728 10.9551 10.5989C10.9551 9.72426 11.7112 9.0123 12.6627 9.0123C13.6206 9.0123 14.3853 9.73026 14.3703 10.5989C14.3703 11.4735 13.6214 12.1854 12.6627 12.1854V12.1854Z" fill="white"/>
</svg>
