<svg width="19" height="13" viewBox="0 0 19 13" fill="none" xmlns="http://www.w3.org/2000/svg">
<path d="M18.6022 1.98837C18.4946 1.60464 18.285 1.25724 17.9958 0.983085C17.6984 0.700501 17.3339 0.498362 16.9367 0.395747C15.4502 0.00392517 9.49446 0.00392526 9.49446 0.00392526C7.0116 -0.0243234 4.52934 0.0999213 2.06171 0.375958C1.6645 0.486154 1.30068 0.69281 1.0026 0.977544C0.709726 1.25934 0.497588 1.60683 0.38677 1.98758C0.120563 3.42168 -0.00877903 4.87783 0.000488538 6.33641C-0.00901018 7.79367 0.120014 9.24935 0.38677 10.6852C0.495214 11.0644 0.70656 11.4103 1.00023 11.6897C1.2939 11.9691 1.6596 12.171 2.06171 12.2779C3.56805 12.6689 9.49446 12.6689 9.49446 12.6689C11.9805 12.6972 14.4659 12.5729 16.9367 12.2969C17.3339 12.1942 17.6984 11.9921 17.9958 11.7095C18.2849 11.4354 18.4942 11.088 18.6014 10.7042C18.8745 9.27068 19.0073 7.81393 18.9979 6.35461C19.0185 4.88912 18.8858 3.42549 18.6022 1.98758V1.98837ZM7.60105 9.04671V3.6269L12.5562 6.3372L7.60105 9.04671Z" fill="white"/>
</svg>
