<svg width="17" height="12" viewBox="0 0 17 12" fill="none" xmlns="http://www.w3.org/2000/svg">
<path d="M17 1.42342C16.3748 1.66396 15.7033 1.82649 14.9972 1.89995C15.7257 1.52145 16.2707 0.925741 16.5306 0.223974C15.8461 0.576974 15.0971 0.825448 14.3159 0.958593C13.7906 0.471576 13.0948 0.148773 12.3366 0.0403016C11.5784 -0.06817 10.8001 0.0437586 10.1226 0.35871C9.44514 0.673661 8.90638 1.17401 8.58996 1.78209C8.27354 2.39016 8.19718 3.07193 8.37272 3.72154C6.98589 3.66108 5.6292 3.34809 4.3907 2.80288C3.1522 2.25767 2.05956 1.49244 1.1837 0.556828C0.884216 1.0054 0.712014 1.52549 0.712014 2.07938C0.71168 2.578 0.853094 3.069 1.12371 3.50879C1.39432 3.94858 1.78577 4.32357 2.26332 4.60049C1.70949 4.58519 1.16788 4.45524 0.683564 4.22148V4.26048C0.683508 4.95983 0.962105 5.63765 1.47208 6.17894C1.98206 6.72023 2.69201 7.09165 3.48146 7.23017C2.96769 7.3509 2.42904 7.36869 1.90619 7.28218C2.12893 7.88392 2.5628 8.41013 3.14706 8.78712C3.73133 9.16412 4.43674 9.37303 5.16454 9.38462C3.92906 10.2268 2.40325 10.6836 0.832555 10.6816C0.554324 10.6816 0.276328 10.6675 0 10.6393C1.59434 11.5294 3.45027 12.0018 5.34572 12C11.7621 12 15.2698 7.38554 15.2698 3.38349C15.2698 3.25347 15.266 3.12215 15.2593 2.99212C15.9416 2.56369 16.5305 2.03315 16.9985 1.42537L17 1.42342V1.42342Z" fill="white"/>
</svg>
