<svg width="14" height="16" viewBox="0 0 14 16" fill="none" xmlns="http://www.w3.org/2000/svg">
<path d="M13.1647 3.75309C12.3641 3.57767 11.6398 3.15406 11.0958 2.54305C10.5518 1.93204 10.2161 1.16503 10.1368 0.352102V0H7.36581V10.9392C7.36638 11.4246 7.21364 11.8978 6.92924 12.2919C6.64485 12.686 6.2432 12.981 5.78121 13.135C5.31922 13.289 4.82029 13.2943 4.35511 13.1501C3.88993 13.0059 3.48208 12.7195 3.18933 12.3316C2.92705 11.9881 2.76645 11.5784 2.72568 11.1488C2.68492 10.7192 2.76561 10.2868 2.95864 9.90046C3.15167 9.51415 3.44934 9.18935 3.81798 8.9628C4.18662 8.73625 4.61153 8.61698 5.04465 8.61849C5.28419 8.61713 5.52253 8.65221 5.75144 8.72252V5.92171C5.48506 5.88884 5.21662 5.87547 4.94827 5.8817C3.95982 5.90802 3.00052 6.22095 2.18784 6.78218C1.37517 7.34341 0.744391 8.12857 0.372753 9.04153C0.00111539 9.95448 -0.0952522 10.9556 0.0954512 11.9223C0.286155 12.889 0.755652 13.7793 1.44645 14.4842C2.15443 15.2014 3.06041 15.6926 4.04928 15.8956C5.03814 16.0986 6.06525 16.0041 7.0001 15.6242C7.93494 15.2442 8.73533 14.596 9.29955 13.7618C9.86377 12.9276 10.1664 11.9451 10.1689 10.9392V5.33754C11.2865 6.13293 12.6266 6.55841 14 6.5539V3.83311C13.7302 3.83422 13.461 3.8074 13.1968 3.75309H13.1647Z" fill="white"/>
</svg>
