<svg width="14" height="12" viewBox="0 0 14 12" fill="none" xmlns="http://www.w3.org/2000/svg">
<path d="M12.8064 0.43631C12.8064 0.43631 14.1015 -0.0686903 13.9936 1.15774C13.9576 1.66275 13.6339 3.43025 13.382 5.34205L12.5186 11.0053C12.5186 11.0053 12.4467 11.8349 11.7991 11.9792C11.1516 12.1235 10.1803 11.4742 10.0004 11.3299C9.85647 11.2217 7.30227 9.59848 6.40287 8.80491C6.15103 8.58848 5.86323 8.15561 6.43883 7.65061L10.2162 4.04348C10.6479 3.61061 11.0796 2.60061 9.28087 3.82705L4.24437 7.25385C4.24437 7.25385 3.66877 7.61455 2.58953 7.28991L0.25114 6.56848C0.25114 6.56848 -0.612263 6.02741 0.862717 5.48631C4.46023 3.79095 8.88517 2.05951 12.8064 0.43631Z" fill="white"/>
</svg>
