<svg width="255" height="117" viewBox="0 0 255 117" fill="none" xmlns="http://www.w3.org/2000/svg">
<path d="M114.617 22.381C117.926 23.611 121.54 23.693 124.98 22.9017C139.392 19.5951 188.946 10.8355 180.336 49.236C178.461 56.8538 149.439 99.5225 190.769 115.096C193.799 116.253 197.001 116.884 200.242 116.962C212.968 117.224 238.185 114.219 248.739 103.477C261.49 90.4984 247.56 96.6525 247.56 96.6525C247.56 96.6525 199.09 117.804 181.968 95.3631C180.064 92.8662 178.85 89.2397 178.504 86.1176C177.901 80.7056 180.304 73.5531 183.461 67.3252C187.735 58.8977 208.249 20.987 163.707 9.94369C153.446 7.50009 138.543 5.30658 119.328 13.3959C108.119 18.115 110.601 20.8886 114.617 22.381Z" fill="#222549"/>
<path d="M124.535 8.22771L111.635 13.0575C107.182 14.7242 104.923 19.6852 106.59 24.1378L107.229 25.8475C108.896 30.3001 113.857 32.5592 118.31 30.8925L131.212 26.0648C135.665 24.3981 137.924 19.4371 136.257 14.9825L135.618 13.2748C133.951 8.82015 128.99 6.56105 124.535 8.22771Z" fill="#2D3050"/>
<path d="M45.344 22.2006L2.79834 38.125C0.569992 38.9573 -0.559565 41.4378 0.274786 43.6641L0.442887 44.1131C1.27519 46.3394 3.75569 47.4689 5.98405 46.6366L48.5298 30.7122C50.7581 29.8778 51.8877 27.3973 51.0533 25.171L50.8852 24.7221C50.0529 22.4958 47.5724 21.3662 45.344 22.2006Z" fill="#222549"/>
<path d="M57.2195 53.9284L14.6718 69.8507C12.4455 70.6851 11.3159 73.1656 12.1503 75.3919L12.3163 75.8408C13.1507 78.0671 15.6312 79.1967 17.8575 78.3623L60.4052 62.44C62.6315 61.6056 63.7611 59.1251 62.9288 56.8988L62.7607 56.4499C61.9284 54.2236 59.4458 53.094 57.2195 53.9284Z" fill="#222549"/>
<path d="M96.5017 0.548529L62.0187 13.4533C57.5641 15.1199 55.305 20.083 56.9716 24.5356L68.7468 55.9928C70.4134 60.4454 75.3744 62.7045 79.827 61.0379L114.312 48.1331C118.765 46.4665 121.024 41.5055 119.357 37.0508L107.584 5.59358C105.917 1.14098 100.956 -1.11812 96.5017 0.548529Z" fill="#202345"/>
<path d="M65.5816 8.79973L31.0965 21.7065C26.6439 23.3732 24.3848 28.3342 26.0515 32.7888L40.098 70.3182C41.7647 74.7708 46.7257 77.0299 51.1783 75.3633L85.6634 62.4585C90.116 60.7919 92.3751 55.8308 90.7085 51.3762L76.6618 13.8468C74.9952 9.39217 70.0342 7.13308 65.5816 8.79973Z" fill="#333763"/>
<path d="M70.9792 1.18396L70.7087 1.28441C67.7403 2.39551 66.2335 5.70421 67.3446 8.67261L87.0226 61.249C88.1337 64.2174 91.4403 65.7241 94.4087 64.613L94.6793 64.5105C97.6498 63.3994 99.1545 60.0928 98.0434 57.1244L78.3675 4.54802C77.2564 1.57962 73.9477 0.0728565 70.9792 1.18396Z" fill="#222549"/>
</svg>
