<svg width="234" height="109" viewBox="0 0 234 109" fill="none" xmlns="http://www.w3.org/2000/svg">
<path d="M9.90313 16.1535C9.90313 16.1535 79.1585 -3.30919 69.1038 41.5325C67.3577 48.6276 42.2224 85.1586 72.1622 102.698C78.591 106.464 86.01 108.133 93.4603 108.094C106.818 108.024 127.994 105.454 137.508 95.7714C150.257 82.7929 136.329 88.947 136.329 88.947C136.329 88.947 96.5542 105.308 76.0917 92.2659C69.1047 87.8133 65.9376 79.191 67.8349 71.1243C68.8048 67.1186 70.2814 63.2523 72.2295 59.6197C76.6796 51.2844 97.0183 13.2815 52.4759 2.23811C42.215 -0.205487 27.3119 -2.39897 8.09585 5.69033C-11.1202 13.7817 9.90313 16.1535 9.90313 16.1535Z" fill="#222549"/>
<path d="M146.82 78.9123L133.919 83.7421C129.466 85.4087 127.206 90.3697 128.873 94.8244L129.513 96.532C131.18 100.987 136.141 103.246 140.595 101.577L153.496 96.7493C157.949 95.0827 160.208 90.1217 158.542 85.667L157.902 83.9594C156.235 79.5047 151.274 77.2456 146.82 78.9123Z" fill="#2D3050"/>
<path d="M168.617 57.6866L149.497 64.8431C145.043 66.5098 142.784 71.4708 144.451 75.9254L153.671 100.558C155.338 105.013 160.299 107.272 164.753 105.605L183.873 98.4487C188.326 96.7821 190.585 91.8211 188.919 87.3664L179.699 62.7337C178.032 58.279 173.071 56.0199 168.617 57.6866Z" fill="#202345"/>
<path d="M200.447 38.7199L171.934 49.3922C167.481 51.0588 165.222 56.0198 166.889 60.4745L180.935 98.0038C182.602 102.458 187.563 104.718 192.016 103.051L220.529 92.3787C224.984 90.712 227.243 85.751 225.576 81.2963L211.53 43.767C209.863 39.3123 204.902 37.0532 200.447 38.7199Z" fill="#333763"/>
<path d="M206.489 30.9484L206.218 31.0488C203.248 32.1599 201.743 35.4686 202.854 38.437L222.53 91.0134C223.641 93.9818 226.95 95.4886 229.918 94.3775L230.189 94.275C233.157 93.1639 234.664 89.8572 233.553 86.8868L213.875 34.3124C212.764 31.344 209.457 29.8373 206.489 30.9484Z" fill="#222549"/>
</svg>
